<?xml version="1.0" encoding="UTF-8" standalone="no"?><!DOCTYPE svg PUBLIC "-//W3C//DTD SVG 1.1//EN" "http://www.w3.org/Graphics/SVG/1.1/DTD/svg11.dtd"><svg width="100%" height="100%" viewBox="0 0 159 58" version="1.1" xmlns="http://www.w3.org/2000/svg" xmlns:xlink="http://www.w3.org/1999/xlink" xml:space="preserve" xmlns:serif="http://www.serif.com/" style="fill-rule:evenodd;clip-rule:evenodd;stroke-linejoin:round;stroke-miterlimit:2;"><path d="M31.515,23.233l0,5.105l-4.216,-0l-0,12.206l-5.771,0l0,-12.206l-4.216,-0l-0,-5.105l14.203,-0Z" style="fill:#fff;fill-rule:nonzero;"/><path d="M38.394,40.545l-5.326,-0l-0,-11.763l5.326,-0l0,11.763Zm-5.327,-17.312l5.327,0l-0,4.217l-5.327,0l0,-4.217Z" style="fill:#fff;fill-rule:nonzero;"/><path d="M47.382,33.664c-0,-0.888 -0.444,-1.331 -0.999,-1.331c-0.555,-0 -0.999,0.443 -0.999,1.331l1.998,-0Zm5.215,0.998l0,1.111l-7.102,-0c0,-0 0.222,1.219 1.998,1.219c1.109,0 1.998,-0.887 1.998,-0.887l1.886,2.996c-0,0 -1.665,1.776 -4.661,1.776c-3.773,-0 -6.547,-2.775 -6.547,-6.215c-0,-3.439 2.774,-6.214 6.214,-6.214c3.44,0 6.214,2.775 6.214,6.214" style="fill:#fff;fill-rule:nonzero;"/><path d="M66.578,34.33l0,6.214l-5.327,0l-0,-6.214c-0,-0.888 -0.443,-1.332 -0.887,-1.332c-0.444,0 -0.888,0.444 -0.888,1.332l-0,6.214l-5.327,0l0,-11.762l5.105,-0l0.444,1.331c-0,0 0.888,-1.665 2.885,-1.665c2.219,0 3.995,1.775 3.995,5.882" style="fill:#fff;fill-rule:nonzero;"/><path d="M74.899,36.327c0.666,-0 1.221,-0.554 1.221,-1.665c-0,-1.109 -0.555,-1.664 -1.221,-1.664c-0.666,0 -1.221,0.555 -1.221,1.664c0,1.111 0.555,1.665 1.221,1.665m-2.109,-7.879c2.22,0 3.108,1.665 3.108,1.665l-0,-6.88l5.327,-0l-0,17.311l-4.883,0l-0.444,-1.331c-0,-0 -0.888,1.663 -3.108,1.663c-2.441,0 -4.66,-2.219 -4.66,-6.214c-0,-3.995 2.219,-6.214 4.66,-6.214" style="fill:#fff;fill-rule:nonzero;"/><path d="M89.879,35.439c-1.221,0 -1.776,0.555 -1.776,1.221c-0,0.333 0.333,0.666 0.667,0.666c0.554,0 1.109,-0.555 1.109,-1.887m5.326,-0.777l0,5.883l-5.104,-0l-0.444,-1.332c-0,-0 -0.887,1.664 -2.886,1.664c-2.441,-0 -3.995,-1.553 -3.995,-3.662c0,-2.108 1.554,-3.662 5.327,-3.662l1.776,0c-0,0 -0.222,-1.221 -1.997,-1.221c-1.111,0 -1.998,0.888 -1.998,0.888l-1.887,-2.996c0,-0 1.665,-1.775 4.661,-1.775c3.772,-0 6.547,2.774 6.547,6.213" style="fill:#fff;fill-rule:nonzero;"/><path d="M46.376,23.233c0,1.983 1.607,3.59 3.59,3.59c1.983,-0 3.59,-1.607 3.59,-3.59l0.737,-7.13l-5.706,0l-2.211,7.13Z" style="fill:#fff;fill-rule:nonzero;"/><path d="M65.705,16.103l-5.706,0l0.737,7.13c0,1.982 1.608,3.59 3.591,3.59c1.982,0 3.589,-1.608 3.589,-3.59l-2.211,-7.13Z" style="fill:#fff;fill-rule:nonzero;"/><path d="M39.196,23.233c0,1.25 1.607,3.59 3.59,3.59c1.983,-0 3.59,-2.34 3.59,-3.59l2.211,-7.13l-5.705,0l-3.686,7.13Z" style="fill:#00b2a6;fill-rule:nonzero;"/><path d="M54.293,16.103l-0.737,7.13c-0,1.25 1.607,3.59 3.59,3.59c1.982,0 3.59,-2.34 3.59,-3.59l-0.737,-7.13l-5.706,0Z" style="fill:#00b2a6;fill-rule:nonzero;"/><path d="M71.411,16.103l-5.706,0l2.211,7.13c-0,1.25 1.607,3.59 3.59,3.59c1.983,0 3.59,-2.34 3.59,-3.59l-3.685,-7.13Z" style="fill:#00b2a6;fill-rule:nonzero;"/><path d="M102.219,33.814l-0,2.283l1.689,0c0.444,0 0.805,-0.099 1.082,-0.297c0.278,-0.198 0.416,-0.487 0.416,-0.868c-0,-0.222 -0.06,-0.405 -0.178,-0.546c-0.119,-0.144 -0.266,-0.258 -0.44,-0.345c-0.175,-0.087 -0.362,-0.147 -0.558,-0.18c-0.2,-0.031 -0.385,-0.047 -0.559,-0.047l-1.452,0Zm-0,-5.707l-0,2.069l1.522,-0c0.396,-0 0.721,-0.091 0.975,-0.274c0.254,-0.181 0.381,-0.463 0.381,-0.844c0,-0.317 -0.135,-0.554 -0.405,-0.713c-0.27,-0.158 -0.625,-0.238 -1.069,-0.238l-1.404,0Zm5.732,3.687c0.396,0.095 0.784,0.249 1.165,0.463c0.381,0.214 0.721,0.484 1.022,0.809c0.302,0.324 0.539,0.702 0.713,1.129c0.174,0.428 0.262,0.904 0.262,1.427c0,0.92 -0.187,1.692 -0.559,2.318c-0.372,0.627 -0.864,1.134 -1.474,1.522c-0.611,0.389 -1.309,0.666 -2.093,0.833c-0.784,0.166 -1.59,0.25 -2.413,0.25l-7.633,-0l0,-16.837l6.919,-0c0.682,-0 1.408,0.052 2.176,0.154c0.769,0.104 1.478,0.31 2.128,0.619c0.65,0.31 1.19,0.761 1.618,1.355c0.428,0.594 0.64,1.376 0.64,2.343c0,0.903 -0.225,1.649 -0.677,2.235c-0.451,0.586 -1.049,1.023 -1.794,1.308l0,0.072Z" style="fill:#00b2a6;fill-rule:nonzero;"/><path d="M118.971,32.198c-0.603,-0 -1.09,0.205 -1.463,0.618c-0.372,0.412 -0.558,0.896 -0.558,1.45c-0,0.587 0.19,1.087 0.57,1.499c0.381,0.412 0.872,0.618 1.474,0.618c0.602,-0 1.094,-0.206 1.475,-0.618c0.381,-0.412 0.571,-0.912 0.571,-1.499c0,-0.554 -0.195,-1.038 -0.583,-1.45c-0.388,-0.413 -0.883,-0.618 -1.486,-0.618m7.157,2.045c0,1.078 -0.194,2.036 -0.583,2.877c-0.388,0.84 -0.91,1.549 -1.569,2.128c-0.657,0.579 -1.419,1.019 -2.283,1.32c-0.863,0.301 -1.771,0.452 -2.722,0.452c-0.935,-0 -1.835,-0.151 -2.699,-0.452c-0.864,-0.301 -1.622,-0.741 -2.271,-1.32c-0.65,-0.579 -1.17,-1.288 -1.558,-2.128c-0.389,-0.841 -0.581,-1.799 -0.581,-2.877c-0,-1.062 0.192,-2.01 0.581,-2.842c0.388,-0.832 0.908,-1.534 1.558,-2.105c0.649,-0.57 1.407,-1.002 2.271,-1.296c0.864,-0.293 1.764,-0.44 2.699,-0.44c0.951,-0 1.859,0.147 2.722,0.44c0.864,0.294 1.626,0.726 2.283,1.296c0.659,0.571 1.181,1.273 1.569,2.105c0.389,0.832 0.583,1.78 0.583,2.842" style="fill:#00b2a6;fill-rule:nonzero;"/><path d="M132.713,37.714l-2.044,2.83l-6.183,-0l4.827,-6.42l-4.494,-6.088l6.23,0l1.807,2.616l1.783,-2.616l6.041,0l-4.494,6.088l4.731,6.42l-6.278,-0l-1.926,-2.83Z" style="fill:#00b2a6;fill-rule:nonzero;"/></svg>