<svg clip-rule="evenodd" fill-rule="evenodd" stroke-linejoin="round" stroke-miterlimit="2" viewBox="0 0 1440 583" xmlns="http://www.w3.org/2000/svg"><g fill="none"><path d="m.001 0h1440v582.844h-1440z"/><path d="m1263.11 405.95v145.143h52.16v-43.09h124.734v-58.964h-124.734v-43.089z"/><path d="m510.242 52.161v52.162h-43.091v124.732h-58.964v-124.732h-43.088v-52.162z"/><path d="m467.152 0v52.16h43.088v124.736h58.966v-124.736h43.091v-52.16h-145.145z"/><path d="m31.752 405.95v52.161h43.089v124.733h58.964v-124.733h43.09v-52.161z"/><path d="m124.734 140.611v43.088h-124.734v58.966h124.734v43.091h52.16v-145.145z"/></g><g fill-rule="nonzero"><path d="m376.467 342.449v63.501h-54.43v-63.501c0-9.07-4.534-13.606-9.069-13.606-4.536 0-9.072 4.536-9.072 13.606v63.501h-54.43v-63.501c0-9.07-4.534-13.606-9.07-13.606s-9.072 4.536-9.072 13.606v63.501h-54.43v-120.195h52.162l4.536 13.607s9.072-17.01 31.751-17.01c22.677 0 34.019 21.546 34.019 21.546s13.606-21.546 36.285-21.546c22.677 0 40.82 18.145 40.82 60.097" fill="#293f54"/><path d="m451.285 405.95h-54.43v-120.196h54.43zm-54.43-176.894h54.43v43.091h-54.43z" fill="#293f54"/><g fill="#00b2a6"><path d="m612.296 229.056v52.162h-43.09v124.732h-58.964v-124.732h-43.089v-52.162z"/><path d="m682.586 405.95h-54.43v-120.196h54.43zm-54.43-176.894h54.43v43.091h-54.43z"/><path d="m774.425 335.646c0-9.07-4.536-13.608-10.207-13.608-5.668 0-10.204 4.538-10.204 13.608zm53.295 10.204v11.342h-72.571s2.268 12.47 20.411 12.47c11.338 0 20.411-9.069 20.411-9.069l19.277 30.614s-17.009 18.145-47.627 18.145c-38.552 0-66.902-28.348-66.902-63.502 0-35.15 28.35-63.498 63.499-63.498 35.154 0 63.502 28.348 63.502 63.498"/><path d="m970.58 342.449v63.501h-54.43v-63.501c0-9.07-4.534-13.606-9.072-13.606-4.536 0-9.07 4.536-9.07 13.606v63.501h-54.43v-120.195h52.162l4.536 13.607s9.07-17.01 29.483-17.01c22.677 0 40.821 18.145 40.821 60.097"/><path d="m1055.61 362.859c6.803 0 12.47-5.668 12.47-17.008 0-11.338-5.667-17.008-12.47-17.008-6.806 0-12.475 5.67-12.475 17.008 0 11.34 5.669 17.008 12.475 17.008m-21.547-80.506c22.677 0 31.751 17.009 31.751 17.009v-70.306h54.428v176.894h-49.894l-4.534-13.606s-9.074 17.007-31.751 17.007c-24.947 0-47.624-22.677-47.624-63.5 0-40.821 22.677-63.498 47.624-63.498"/><path d="m1208.68 353.79c-12.473 0-18.144 5.668-18.144 12.47 0 3.403 3.401 6.808 6.802 6.808 5.673 0 11.342-5.673 11.342-19.278m54.428-7.939v60.099h-52.161l-4.535-13.606s-9.074 17.007-29.483 17.007c-24.948 0-40.821-15.872-40.821-37.418 0-21.544 15.873-37.42 54.428-37.42h18.144s-2.268-12.474-20.412-12.474c-11.339 0-20.411 9.073-20.411 9.073l-19.276-30.616s17.008-18.143 47.626-18.143c38.553 0 66.901 28.348 66.901 63.498"/><path d="m764.15 229.056c0 20.261 16.423 36.683 36.684 36.683 20.259 0 36.684-16.422 36.684-36.683l7.531-72.854h-58.306z"/><path d="m961.658 156.203h-58.304l7.532 72.853c0 20.26 16.425 36.682 36.684 36.682s36.683-16.422 36.683-36.682z"/></g><path d="m690.782 229.056c0 12.772 16.424 36.683 36.684 36.683 20.259 0 36.685-23.911 36.685-36.683l22.593-72.854h-58.306z" fill="#293f54"/><path d="m845.049 156.203-7.532 72.853c0 12.773 16.424 36.682 36.686 36.682 20.257 0 36.683-23.909 36.683-36.682l-7.533-72.853z" fill="#293f54"/><path d="m1019.97 156.203h-58.306l22.595 72.853c0 12.773 16.423 36.682 36.684 36.682 20.259 0 36.683-23.909 36.683-36.682z" fill="#293f54"/></g></svg>