<svg clip-rule="evenodd" fill-rule="evenodd" stroke-linejoin="round" stroke-miterlimit="2" viewBox="0 0 701 284" xmlns="http://www.w3.org/2000/svg"><g fill="none"><path d="m-.001 0h700.341v283.465h-700.341z"/><path d="m614.309 197.432h25.368v20.956h60.664v28.678h-60.664v20.956h-25.368z"/><path d="m248.155 25.368v25.369h-20.957v60.663h-28.677v-60.663h-20.956v-25.369z"/><path d="m297.789 0v25.368h-20.957v60.664h-28.677v-60.664h-20.956v-25.368h70.59z"/><path d="m86.032 197.432v25.368h-20.957v60.664h-28.677v-60.664h-20.956v-25.368z"/><path d="m86.032 138.975h-25.369v-20.956h-60.663v-28.678h60.663v-20.956h25.369z"/></g><g fill-rule="nonzero"><path d="m183.094 166.549v30.883h-26.472v-30.884c0-4.411-2.205-6.617-4.411-6.617s-4.412 2.206-4.412 6.617v30.885h-26.472v-30.885c0-4.411-2.205-6.617-4.411-6.617s-4.412 2.206-4.412 6.617v30.885h-26.472v-58.458h25.369l2.206 6.619s4.412-8.274 15.442-8.274c11.029 0 16.545 10.48 16.545 10.48s6.617-10.48 17.647-10.48c11.029 0 19.853 8.826 19.853 29.228" fill="#00b2a6"/><path d="m219.48 197.432h-26.472v-58.457h26.472zm-26.471-86.032h26.472v20.957h-26.472z" fill="#00b2a6"/><g fill="#fff"><path d="m297.789 111.4v25.369h-20.957v60.663h-28.677v-60.663h-20.956v-25.369z"/><path d="m331.973 197.432h-26.472v-58.457h26.472zm-26.472-86.032h26.472v20.957h-26.472z"/><path d="m376.64 163.24c0-4.411-2.206-6.618-4.964-6.618-2.757 0-4.963 2.207-4.963 6.618zm25.92 4.963v5.516h-35.295s1.103 6.065 9.927 6.065c5.514 0 9.927-4.411 9.927-4.411l9.375 14.889s-8.272 8.825-23.163 8.825c-18.75 0-32.538-13.787-32.538-30.884 0-17.095 13.788-30.882 30.883-30.882 17.097 0 30.884 13.787 30.884 30.882"/><path d="m472.039 166.549v30.883h-26.472v-30.884c0-4.411-2.205-6.617-4.412-6.617-2.206 0-4.411 2.206-4.411 6.617v30.885h-26.472v-58.458h25.369l2.206 6.619s4.411-8.274 14.339-8.274c11.029 0 19.853 8.826 19.853 29.228"/><path d="m513.395 176.475c3.309 0 6.065-2.757 6.065-8.272 0-5.514-2.756-8.272-6.065-8.272-3.31 0-6.067 2.758-6.067 8.272 0 5.515 2.757 8.272 6.067 8.272m-10.479-39.154c11.029 0 15.442 8.272 15.442 8.272v-34.193h26.471v86.032h-24.266l-2.205-6.617s-4.413 8.271-15.442 8.271c-12.133 0-23.162-11.029-23.162-30.883 0-19.853 11.029-30.882 23.162-30.882"/><path d="m587.838 172.064c-6.066 0-8.824 2.757-8.824 6.065 0 1.655 1.654 3.311 3.308 3.311 2.759 0 5.516-2.759 5.516-9.376m26.471-3.861v29.229h-25.368l-2.206-6.617s-4.413 8.271-14.339 8.271c-12.133 0-19.853-7.719-19.853-18.198 0-10.478 7.72-18.199 26.471-18.199h8.824s-1.103-6.067-9.927-6.067c-5.515 0-9.927 4.413-9.927 4.413l-9.375-14.89s8.272-8.824 23.163-8.824c18.75 0 32.537 13.787 32.537 30.882"/><path d="m371.643 111.4c0 9.854 7.987 17.841 17.841 17.841 9.853 0 17.841-7.987 17.841-17.841l3.663-35.432h-28.357z"/><path d="m467.7 75.968h-28.356l3.663 35.432c0 9.853 7.988 17.84 17.841 17.84s17.841-7.987 17.841-17.84z"/></g><path d="m335.96 111.4c0 6.212 7.988 17.841 17.841 17.841s17.842-11.629 17.842-17.841l10.988-35.432h-28.357z" fill="#00b2a6"/><path d="m410.987 75.968-3.663 35.432c0 6.212 7.988 17.84 17.842 17.84 9.852 0 17.841-11.628 17.841-17.84l-3.664-35.432z" fill="#00b2a6"/><path d="m496.058 75.968h-28.357l10.989 35.432c0 6.212 7.987 17.84 17.841 17.84 9.853 0 17.84-11.628 17.84-17.84z" fill="#00b2a6"/></g></svg>