<?xml version="1.0" encoding="UTF-8" standalone="no"?>
<!DOCTYPE svg PUBLIC "-//W3C//DTD SVG 1.1//EN" "http://www.w3.org/Graphics/SVG/1.1/DTD/svg11.dtd">
<svg width="100%" height="100%" viewBox="0 0 693 184" version="1.1" xmlns="http://www.w3.org/2000/svg" xmlns:xlink="http://www.w3.org/1999/xlink" xml:space="preserve" xmlns:serif="http://www.serif.com/" style="fill-rule:evenodd;clip-rule:evenodd;stroke-linejoin:round;stroke-miterlimit:2;">
    <g transform="matrix(2,0,0,2,-2736.794,-722.684)">
        <g transform="matrix(1,0,0,1,1513.06,384.01)">
            <path d="M0,45.282L-15.188,25.286L-15.188,45.282L-26.193,45.282L-26.193,0L-15.188,0L-15.188,19.867L-0.129,0L12.807,0L-4.698,22.19L13.451,45.282L0,45.282Z" style="fill:white;fill-rule:nonzero;"/>
        </g>
        <g transform="matrix(1,0,0,1,1553.18,417.809)">
            <path d="M0,-13.029C-1.523,-14.62 -3.379,-15.416 -5.567,-15.416C-7.755,-15.416 -9.611,-14.631 -11.134,-13.062C-12.657,-11.491 -13.418,-9.33 -13.418,-6.579C-13.418,-3.826 -12.657,-1.644 -11.134,-0.032C-9.611,1.581 -7.755,2.387 -5.567,2.387C-3.379,2.387 -1.523,1.592 0,0.001C1.523,-1.59 2.285,-3.762 2.285,-6.514C2.285,-9.266 1.523,-11.438 0,-13.029M-22.525,-16.319C-21.131,-19.114 -19.233,-21.263 -16.829,-22.769C-14.427,-24.274 -11.745,-25.027 -8.785,-25.027C-6.254,-25.027 -4.033,-24.511 -2.124,-23.479C-0.215,-22.447 1.255,-21.092 2.285,-19.415L2.285,-24.511L13.29,-24.511L13.29,11.482L2.285,11.482L2.285,6.386C1.212,8.063 -0.279,9.418 -2.188,10.45C-4.098,11.482 -6.318,11.998 -8.849,11.998C-11.767,11.998 -14.427,11.235 -16.829,9.708C-19.233,8.183 -21.131,6.011 -22.525,3.194C-23.92,0.378 -24.617,-2.88 -24.617,-6.579C-24.617,-10.277 -23.92,-13.523 -22.525,-16.319" style="fill:white;fill-rule:nonzero;"/>
        </g>
        <g transform="matrix(1,0,0,1,1579.73,394.395)">
            <path d="M0,33.801C-2.446,32.726 -4.377,31.253 -5.792,29.382C-7.208,27.512 -8.002,25.415 -8.173,23.093L2.703,23.093C2.832,24.341 3.411,25.351 4.44,26.125C5.47,26.899 6.735,27.286 8.238,27.286C9.61,27.286 10.672,27.018 11.423,26.48C12.173,25.942 12.549,25.244 12.549,24.383C12.549,23.351 12.013,22.588 10.941,22.093C9.868,21.6 8.13,21.051 5.728,20.448C3.153,19.847 1.008,19.213 -0.708,18.546C-2.425,17.879 -3.905,16.826 -5.149,15.385C-6.394,13.945 -7.015,11.998 -7.015,9.547C-7.015,7.483 -6.447,5.602 -5.31,3.903C-4.173,2.205 -2.5,0.861 -0.29,-0.129C1.92,-1.117 4.547,-1.612 7.594,-1.612C12.099,-1.612 15.649,-0.493 18.245,1.742C20.84,3.979 22.332,6.946 22.718,10.644L12.549,10.644C12.377,9.397 11.83,8.408 10.909,7.677C9.985,6.946 8.773,6.58 7.272,6.58C5.985,6.58 4.998,6.828 4.312,7.322C3.625,7.817 3.282,8.494 3.282,9.354C3.282,10.386 3.829,11.16 4.923,11.676C6.017,12.192 7.723,12.708 10.04,13.224C12.699,13.912 14.866,14.59 16.54,15.256C18.213,15.923 19.682,16.998 20.948,18.481C22.213,19.965 22.868,21.954 22.911,24.448C22.911,26.555 22.321,28.437 21.141,30.092C19.961,31.748 18.266,33.049 16.057,33.994C13.847,34.94 11.284,35.413 8.366,35.413C5.234,35.413 2.446,34.876 0,33.801" style="fill:white;fill-rule:nonzero;"/>
        </g>
        <g transform="matrix(1,0,0,1,1648.85,384.01)">
            <path d="M0,45.282L-11.005,45.282L-29.411,17.352L-29.411,45.282L-40.416,45.282L-40.416,0L-29.411,0L-11.005,28.059L-11.005,0L0,0L0,45.282Z" style="fill:white;fill-rule:nonzero;"/>
        </g>
        <g transform="matrix(1,0,0,1,1678.45,414.779)">
            <path d="M0,-6.967C0,-8.859 -0.644,-10.363 -1.931,-11.482C-3.218,-12.6 -4.827,-13.159 -6.758,-13.159C-8.603,-13.159 -10.158,-12.621 -11.423,-11.547C-12.69,-10.471 -13.473,-8.944 -13.773,-6.967L0,-6.967ZM11.069,-0.839L-13.837,-0.839C-13.666,1.397 -12.947,3.107 -11.681,4.289C-10.416,5.472 -8.86,6.063 -7.015,6.063C-4.27,6.063 -2.36,4.902 -1.287,2.58L10.426,2.58C9.825,4.945 8.741,7.074 7.176,8.966C5.609,10.859 3.646,12.342 1.287,13.417C-1.073,14.492 -3.712,15.029 -6.629,15.029C-10.147,15.029 -13.28,14.277 -16.025,12.771C-18.771,11.267 -20.916,9.117 -22.461,6.321C-24.005,3.526 -24.778,0.257 -24.778,-3.483C-24.778,-7.225 -24.016,-10.493 -22.493,-13.288C-20.97,-16.083 -18.836,-18.233 -16.089,-19.739C-13.344,-21.243 -10.191,-21.996 -6.629,-21.996C-3.154,-21.996 -0.065,-21.264 2.638,-19.803C5.342,-18.341 7.454,-16.255 8.978,-13.546C10.5,-10.837 11.262,-7.676 11.262,-4.064C11.262,-3.032 11.198,-1.957 11.069,-0.839" style="fill:white;fill-rule:nonzero;"/>
        </g>
        <g transform="matrix(1,0,0,1,1714.56,393.879)">
            <path d="M0,26.06L0,35.413L-5.6,35.413C-9.589,35.413 -12.701,34.435 -14.931,32.478C-17.163,30.522 -18.278,27.329 -18.278,22.899L-18.278,8.579L-22.654,8.579L-22.654,-0.58L-18.278,-0.58L-18.278,-9.353L-7.272,-9.353L-7.272,-0.58L-0.065,-0.58L-0.065,8.579L-7.272,8.579L-7.272,23.028C-7.272,24.104 -7.015,24.878 -6.5,25.35C-5.985,25.824 -5.128,26.06 -3.926,26.06L0,26.06Z" style="fill:white;fill-rule:nonzero;"/>
        </g>
        <g transform="matrix(1,0,0,1,1710.81,452.965)">
            <path d="M0,-16.389L-134.192,-16.389C-136.233,-16.389 -137.888,-14.735 -137.888,-12.694L-137.888,-3.695C-137.888,-1.655 -136.233,0 -134.192,0L0,0C2.041,0 3.695,-1.655 3.695,-3.695L3.695,-12.694C3.695,-14.735 2.041,-16.389 0,-16.389" style="fill:rgb(249,203,0);fill-rule:nonzero;"/>
        </g>
        <g transform="matrix(1,0,0,1,1578.96,447.676)">
            <path d="M0,-5.811L0,-3.486L2.735,-3.486L2.735,-2.427L0,-2.427L0,0L3.076,0L3.076,1.06L-1.299,1.06L-1.299,-6.871L3.076,-6.871L3.076,-5.811L0,-5.811Z" style="fill:rgb(75,75,186);fill-rule:nonzero;"/>
        </g>
        <g transform="matrix(1,0,0,1,1588.12,448.429)">
            <path d="M0,-5.766C0.391,-5.561 0.697,-5.257 0.917,-4.854C1.138,-4.452 1.248,-3.966 1.248,-3.396L1.248,0.308L-0.04,0.308L-0.04,-3.202C-0.04,-3.764 -0.18,-4.196 -0.461,-4.495C-0.742,-4.795 -1.126,-4.946 -1.612,-4.946C-2.099,-4.946 -2.484,-4.795 -2.769,-4.495C-3.054,-4.196 -3.196,-3.764 -3.196,-3.202L-3.196,0.308L-4.495,0.308L-4.495,-5.971L-3.196,-5.971L-3.196,-5.253C-2.984,-5.512 -2.712,-5.713 -2.382,-5.857C-2.051,-6.002 -1.7,-6.074 -1.328,-6.074C-0.834,-6.074 -0.391,-5.971 0,-5.766" style="fill:rgb(75,75,186);fill-rule:nonzero;"/>
        </g>
        <g transform="matrix(1,0,0,1,1593.95,447.306)">
            <path d="M0,-3.418C0.262,-3.908 0.625,-4.286 1.088,-4.552C1.552,-4.818 2.083,-4.951 2.684,-4.951C3.443,-4.951 4.072,-4.77 4.569,-4.41C5.067,-4.049 5.403,-3.534 5.578,-2.866L4.176,-2.866C4.062,-3.177 3.88,-3.42 3.629,-3.595C3.379,-3.77 3.063,-3.857 2.684,-3.857C2.152,-3.857 1.728,-3.669 1.413,-3.293C1.098,-2.917 0.94,-2.391 0.94,-1.714C0.94,-1.038 1.098,-0.51 1.413,-0.13C1.728,0.249 2.152,0.439 2.684,0.439C3.435,0.439 3.933,0.109 4.176,-0.552L5.578,-0.552C5.396,0.086 5.054,0.593 4.552,0.969C4.051,1.345 3.428,1.533 2.684,1.533C2.083,1.533 1.552,1.398 1.088,1.129C0.625,0.859 0.262,0.479 0,-0.011C-0.262,-0.501 -0.393,-1.069 -0.393,-1.714C-0.393,-2.36 -0.262,-2.928 0,-3.418" style="fill:rgb(75,75,186);fill-rule:nonzero;"/>
        </g>
        <g transform="matrix(1,0,0,1,1605.26,446.731)">
            <path d="M0,-2.268C-0.179,-2.587 -0.412,-2.83 -0.701,-2.997C-0.99,-3.164 -1.301,-3.248 -1.635,-3.248C-1.969,-3.248 -2.281,-3.166 -2.57,-3.003C-2.859,-2.84 -3.092,-2.6 -3.27,-2.285C-3.449,-1.97 -3.538,-1.596 -3.538,-1.163C-3.538,-0.73 -3.449,-0.35 -3.27,-0.023C-3.092,0.304 -2.857,0.552 -2.564,0.723C-2.271,0.894 -1.962,0.98 -1.635,0.98C-1.301,0.98 -0.99,0.896 -0.701,0.729C-0.412,0.562 -0.179,0.317 0,-0.006C0.179,-0.329 0.268,-0.707 0.268,-1.14C0.268,-1.573 0.179,-1.949 0,-2.268M-4.478,-2.838C-4.216,-3.324 -3.859,-3.702 -3.407,-3.972C-2.955,-4.241 -2.456,-4.376 -1.909,-4.376C-1.415,-4.376 -0.984,-4.279 -0.615,-4.086C-0.247,-3.892 0.047,-3.65 0.268,-3.362L0.268,-4.274L1.578,-4.274L1.578,2.005L0.268,2.005L0.268,1.071C0.047,1.367 -0.252,1.614 -0.632,1.811C-1.012,2.009 -1.446,2.108 -1.931,2.108C-2.471,2.108 -2.965,1.969 -3.413,1.692C-3.861,1.414 -4.216,1.027 -4.478,0.529C-4.74,0.032 -4.871,-0.532 -4.871,-1.163C-4.871,-1.793 -4.74,-2.352 -4.478,-2.838" style="fill:rgb(75,75,186);fill-rule:nonzero;"/>
        </g>
        <g transform="matrix(1,0,0,1,1612.99,444.68)">
            <path d="M0,-0.217C-0.179,-0.536 -0.412,-0.779 -0.701,-0.946C-0.989,-1.113 -1.301,-1.197 -1.635,-1.197C-1.969,-1.197 -2.281,-1.115 -2.57,-0.952C-2.859,-0.789 -3.092,-0.549 -3.27,-0.234C-3.449,0.081 -3.538,0.455 -3.538,0.888C-3.538,1.321 -3.449,1.701 -3.27,2.028C-3.092,2.355 -2.856,2.603 -2.564,2.774C-2.271,2.945 -1.962,3.031 -1.635,3.031C-1.301,3.031 -0.989,2.947 -0.701,2.78C-0.412,2.613 -0.179,2.368 0,2.045C0.179,1.722 0.268,1.344 0.268,0.911C0.268,0.478 0.179,0.102 0,-0.217M-4.478,-0.787C-4.216,-1.273 -3.859,-1.651 -3.407,-1.921C-2.955,-2.19 -2.452,-2.325 -1.897,-2.325C-1.487,-2.325 -1.082,-2.236 -0.684,-2.057C-0.285,-1.879 0.032,-1.642 0.268,-1.345L0.268,-4.376L1.578,-4.376L1.578,4.056L0.268,4.056L0.268,3.111C0.055,3.414 -0.239,3.665 -0.615,3.862C-0.991,4.06 -1.422,4.159 -1.909,4.159C-2.456,4.159 -2.955,4.02 -3.407,3.743C-3.859,3.465 -4.216,3.078 -4.478,2.58C-4.74,2.083 -4.871,1.519 -4.871,0.888C-4.871,0.258 -4.74,-0.301 -4.478,-0.787" style="fill:rgb(75,75,186);fill-rule:nonzero;"/>
        </g>
        <g transform="matrix(1,0,0,1,1620.71,446.731)">
            <path d="M0,-2.268C-0.179,-2.587 -0.412,-2.83 -0.701,-2.997C-0.99,-3.164 -1.301,-3.248 -1.635,-3.248C-1.969,-3.248 -2.281,-3.166 -2.57,-3.003C-2.859,-2.84 -3.092,-2.6 -3.27,-2.285C-3.449,-1.97 -3.538,-1.596 -3.538,-1.163C-3.538,-0.73 -3.449,-0.35 -3.27,-0.023C-3.092,0.304 -2.857,0.552 -2.564,0.723C-2.271,0.894 -1.962,0.98 -1.635,0.98C-1.301,0.98 -0.99,0.896 -0.701,0.729C-0.412,0.562 -0.179,0.317 0,-0.006C0.179,-0.329 0.268,-0.707 0.268,-1.14C0.268,-1.573 0.179,-1.949 0,-2.268M-4.478,-2.838C-4.216,-3.324 -3.859,-3.702 -3.407,-3.972C-2.955,-4.241 -2.456,-4.376 -1.909,-4.376C-1.415,-4.376 -0.984,-4.279 -0.615,-4.086C-0.247,-3.892 0.047,-3.65 0.268,-3.362L0.268,-4.274L1.578,-4.274L1.578,2.005L0.268,2.005L0.268,1.071C0.047,1.367 -0.252,1.614 -0.632,1.811C-1.012,2.009 -1.445,2.108 -1.931,2.108C-2.471,2.108 -2.965,1.969 -3.413,1.692C-3.861,1.414 -4.216,1.027 -4.478,0.529C-4.74,0.032 -4.871,-0.532 -4.871,-1.163C-4.871,-1.793 -4.74,-2.352 -4.478,-2.838" style="fill:rgb(75,75,186);fill-rule:nonzero;"/>
        </g>
        <g transform="matrix(1,0,0,1,1629.02,448.468)">
            <path d="M0,-5.846C0.315,-6.024 0.689,-6.114 1.123,-6.114L1.123,-4.769L0.792,-4.769C0.283,-4.769 -0.102,-4.64 -0.365,-4.382C-0.626,-4.123 -0.758,-3.675 -0.758,-3.037L-0.758,0.268L-2.057,0.268L-2.057,-6.011L-0.758,-6.011L-0.758,-5.099C-0.568,-5.419 -0.315,-5.667 0,-5.846" style="fill:rgb(75,75,186);fill-rule:nonzero;"/>
        </g>
        <g transform="matrix(1,0,0,1,0,-191.302)">
            <path d="M1632.64,640.038L1631.341,640.038L1631.341,633.759L1632.64,633.759L1632.64,640.038ZM1631.41,632.688C1631.25,632.529 1631.17,632.331 1631.17,632.095C1631.17,631.86 1631.25,631.662 1631.41,631.503C1631.57,631.344 1631.76,631.264 1632,631.264C1632.23,631.264 1632.42,631.344 1632.58,631.503C1632.74,631.662 1632.82,631.86 1632.82,632.095C1632.82,632.331 1632.74,632.529 1632.58,632.688C1632.42,632.848 1632.23,632.928 1632,632.928C1631.76,632.928 1631.57,632.848 1631.41,632.688" style="fill:rgb(75,75,186);fill-rule:nonzero;"/>
        </g>
        <g transform="matrix(1,0,0,1,1638.84,448.429)">
            <path d="M0,-5.766C0.391,-5.561 0.697,-5.257 0.917,-4.854C1.138,-4.452 1.248,-3.966 1.248,-3.396L1.248,0.308L-0.04,0.308L-0.04,-3.202C-0.04,-3.764 -0.18,-4.196 -0.461,-4.495C-0.742,-4.795 -1.126,-4.946 -1.612,-4.946C-2.099,-4.946 -2.484,-4.795 -2.769,-4.495C-3.054,-4.196 -3.196,-3.764 -3.196,-3.202L-3.196,0.308L-4.495,0.308L-4.495,-5.971L-3.196,-5.971L-3.196,-5.253C-2.984,-5.512 -2.712,-5.713 -2.382,-5.857C-2.051,-6.002 -1.7,-6.074 -1.328,-6.074C-0.834,-6.074 -0.391,-5.971 0,-5.766" style="fill:rgb(75,75,186);fill-rule:nonzero;"/>
        </g>
        <g transform="matrix(1,0,0,1,1641.7,447.306)">
            <path d="M0,-3.418C0.262,-3.908 0.625,-4.286 1.088,-4.552C1.552,-4.818 2.083,-4.951 2.684,-4.951C3.443,-4.951 4.072,-4.77 4.569,-4.41C5.067,-4.049 5.403,-3.534 5.578,-2.866L4.176,-2.866C4.062,-3.177 3.88,-3.42 3.629,-3.595C3.378,-3.77 3.063,-3.857 2.684,-3.857C2.152,-3.857 1.728,-3.669 1.413,-3.293C1.098,-2.917 0.94,-2.391 0.94,-1.714C0.94,-1.038 1.098,-0.51 1.413,-0.13C1.728,0.249 2.152,0.439 2.684,0.439C3.435,0.439 3.933,0.109 4.176,-0.552L5.578,-0.552C5.395,0.086 5.054,0.593 4.552,0.969C4.051,1.345 3.428,1.533 2.684,1.533C2.083,1.533 1.552,1.398 1.088,1.129C0.625,0.859 0.262,0.479 0,-0.011C-0.262,-0.501 -0.393,-1.069 -0.393,-1.714C-0.393,-2.36 -0.262,-2.928 0,-3.418" style="fill:rgb(75,75,186);fill-rule:nonzero;"/>
        </g>
        <g transform="matrix(1,0,0,1,1652.24,443.722)">
            <path d="M0,3.749C0.292,3.589 0.53,3.35 0.712,3.031C0.894,2.712 0.986,2.324 0.986,1.869C0.986,1.413 0.898,1.027 0.724,0.712C0.549,0.397 0.317,0.16 0.028,-0C-0.26,-0.16 -0.572,-0.24 -0.906,-0.24C-1.24,-0.24 -1.55,-0.16 -1.835,-0C-2.119,0.16 -2.346,0.397 -2.513,0.712C-2.68,1.027 -2.763,1.413 -2.763,1.869C-2.763,2.545 -2.591,3.067 -2.245,3.436C-1.899,3.804 -1.464,3.988 -0.94,3.988C-0.606,3.988 -0.292,3.908 0,3.749M-2.547,4.712C-3.025,4.442 -3.401,4.062 -3.675,3.572C-3.948,3.082 -4.085,2.515 -4.085,1.869C-4.085,1.231 -3.945,0.665 -3.664,0.171C-3.383,-0.323 -2.999,-0.703 -2.513,-0.969C-2.026,-1.235 -1.484,-1.367 -0.883,-1.367C-0.283,-1.367 0.26,-1.235 0.746,-0.969C1.232,-0.703 1.616,-0.323 1.897,0.171C2.178,0.665 2.319,1.231 2.319,1.869C2.319,2.507 2.174,3.073 1.886,3.567C1.597,4.06 1.204,4.442 0.706,4.712C0.209,4.981 -0.34,5.116 -0.94,5.116C-1.533,5.116 -2.068,4.981 -2.547,4.712" style="fill:rgb(75,75,186);fill-rule:nonzero;"/>
        </g>
        <g transform="matrix(-0.896836,0.442363,0.442363,0.896836,1650.572185,441.457868)">
            <path d="M-2.418,0.427L0.389,0.427L-0.034,-0.431L-2.907,-0.564L-2.418,0.427Z" style="fill:rgb(75,75,186);fill-rule:nonzero;"/>
        </g>
        <g transform="matrix(1,0,0,1,1660.34,448.429)">
            <path d="M0,-5.766C0.391,-5.561 0.697,-5.257 0.917,-4.854C1.138,-4.452 1.248,-3.966 1.248,-3.396L1.248,0.308L-0.04,0.308L-0.04,-3.202C-0.04,-3.764 -0.18,-4.196 -0.461,-4.495C-0.742,-4.795 -1.126,-4.946 -1.612,-4.946C-2.099,-4.946 -2.484,-4.795 -2.769,-4.495C-3.054,-4.196 -3.196,-3.764 -3.196,-3.202L-3.196,0.308L-4.495,0.308L-4.495,-5.971L-3.196,-5.971L-3.196,-5.253C-2.983,-5.512 -2.712,-5.713 -2.382,-5.857C-2.051,-6.002 -1.7,-6.074 -1.327,-6.074C-0.834,-6.074 -0.391,-5.971 0,-5.766" style="fill:rgb(75,75,186);fill-rule:nonzero;"/>
        </g>
        <g transform="matrix(1,0,0,1,1670.65,444.68)">
            <path d="M0,-0.217C-0.179,-0.536 -0.412,-0.779 -0.701,-0.946C-0.989,-1.113 -1.3,-1.197 -1.635,-1.197C-1.969,-1.197 -2.28,-1.115 -2.57,-0.952C-2.858,-0.789 -3.092,-0.549 -3.27,-0.234C-3.449,0.081 -3.538,0.455 -3.538,0.888C-3.538,1.321 -3.449,1.701 -3.27,2.028C-3.092,2.355 -2.856,2.603 -2.564,2.774C-2.271,2.945 -1.962,3.031 -1.635,3.031C-1.3,3.031 -0.989,2.947 -0.701,2.78C-0.412,2.613 -0.179,2.368 0,2.045C0.179,1.722 0.268,1.344 0.268,0.911C0.268,0.478 0.179,0.102 0,-0.217M-4.478,-0.787C-4.216,-1.273 -3.859,-1.651 -3.407,-1.921C-2.955,-2.19 -2.452,-2.325 -1.897,-2.325C-1.486,-2.325 -1.082,-2.236 -0.683,-2.057C-0.284,-1.879 0.033,-1.642 0.268,-1.345L0.268,-4.376L1.578,-4.376L1.578,4.056L0.268,4.056L0.268,3.111C0.055,3.414 -0.239,3.665 -0.615,3.862C-0.991,4.06 -1.422,4.159 -1.908,4.159C-2.456,4.159 -2.955,4.02 -3.407,3.743C-3.859,3.465 -4.216,3.078 -4.478,2.58C-4.74,2.083 -4.871,1.519 -4.871,0.888C-4.871,0.258 -4.74,-0.301 -4.478,-0.787" style="fill:rgb(75,75,186);fill-rule:nonzero;"/>
        </g>
        <g transform="matrix(1,0,0,1,1678.33,446.161)">
            <path d="M0,-1.128C-0.008,-1.607 -0.179,-1.99 -0.513,-2.279C-0.847,-2.568 -1.262,-2.712 -1.755,-2.712C-2.204,-2.712 -2.588,-2.57 -2.906,-2.285C-3.225,-2 -3.415,-1.614 -3.476,-1.128L0,-1.128ZM1.309,-0.08L-3.488,-0.08C-3.45,0.421 -3.263,0.824 -2.929,1.128C-2.594,1.432 -2.185,1.584 -1.698,1.584C-1,1.584 -0.506,1.292 -0.216,0.707L1.185,0.707C0.995,1.284 0.651,1.757 0.154,2.125C-0.344,2.494 -0.962,2.678 -1.698,2.678C-2.299,2.678 -2.837,2.543 -3.311,2.273C-3.786,2.004 -4.158,1.624 -4.428,1.134C-4.697,0.644 -4.832,0.076 -4.832,-0.57C-4.832,-1.215 -4.701,-1.784 -4.439,-2.273C-4.177,-2.763 -3.809,-3.141 -3.333,-3.407C-2.858,-3.673 -2.314,-3.806 -1.698,-3.806C-1.106,-3.806 -0.578,-3.677 -0.115,-3.419C0.349,-3.16 0.71,-2.798 0.969,-2.331C1.226,-1.863 1.355,-1.325 1.355,-0.718C1.355,-0.482 1.341,-0.27 1.309,-0.08" style="fill:rgb(75,75,186);fill-rule:nonzero;"/>
        </g>
        <g transform="matrix(-1,0,0,1,3363.221,-190.961)">
            <rect x="1680.961" y="631.264" width="1.299" height="8.433" style="fill:rgb(75,75,186);"/>
        </g>
        <g transform="matrix(1,0,0,1,1691.78,449.631)">
            <path d="M0,-5.185C-0.179,-5.5 -0.414,-5.739 -0.706,-5.903C-0.999,-6.066 -1.312,-6.148 -1.646,-6.148C-1.973,-6.148 -2.283,-6.064 -2.575,-5.897C-2.868,-5.73 -3.103,-5.487 -3.282,-5.168C-3.46,-4.849 -3.55,-4.473 -3.55,-4.039C-3.55,-3.607 -3.46,-3.229 -3.282,-2.906C-3.103,-2.583 -2.868,-2.338 -2.575,-2.171C-2.283,-2.004 -1.973,-1.92 -1.646,-1.92C-1.312,-1.92 -0.999,-2.006 -0.706,-2.177C-0.414,-2.347 -0.179,-2.596 0,-2.923C0.179,-3.25 0.268,-3.629 0.268,-4.062C0.268,-4.495 0.179,-4.87 0,-5.185M-2.649,-6.98C-2.27,-7.177 -1.84,-7.276 -1.362,-7.276C-0.814,-7.276 -0.315,-7.141 0.137,-6.871C0.589,-6.602 0.944,-6.224 1.202,-5.738C1.46,-5.251 1.59,-4.693 1.59,-4.062C1.59,-3.432 1.46,-2.868 1.202,-2.37C0.944,-1.872 0.589,-1.485 0.137,-1.208C-0.315,-0.931 -0.814,-0.792 -1.362,-0.792C-1.84,-0.792 -2.266,-0.889 -2.638,-1.083C-3.01,-1.276 -3.314,-1.517 -3.55,-1.806L-3.55,2.091L-4.849,2.091L-4.849,-7.173L-3.55,-7.173L-3.55,-6.25C-3.329,-6.539 -3.029,-6.782 -2.649,-6.98" style="fill:rgb(75,75,186);fill-rule:nonzero;"/>
        </g>
        <g transform="matrix(1,0,0,1,1699.1,446.731)">
            <path d="M0,-2.268C-0.179,-2.587 -0.412,-2.83 -0.701,-2.997C-0.99,-3.164 -1.301,-3.248 -1.636,-3.248C-1.97,-3.248 -2.281,-3.166 -2.57,-3.003C-2.859,-2.84 -3.093,-2.6 -3.271,-2.285C-3.45,-1.97 -3.538,-1.596 -3.538,-1.163C-3.538,-0.73 -3.45,-0.35 -3.271,-0.023C-3.093,0.304 -2.856,0.552 -2.564,0.723C-2.272,0.894 -1.963,0.98 -1.636,0.98C-1.301,0.98 -0.99,0.896 -0.701,0.729C-0.412,0.562 -0.179,0.317 0,-0.006C0.178,-0.329 0.267,-0.707 0.267,-1.14C0.267,-1.573 0.178,-1.949 0,-2.268M-4.479,-2.838C-4.217,-3.324 -3.859,-3.702 -3.407,-3.972C-2.956,-4.241 -2.456,-4.376 -1.909,-4.376C-1.415,-4.376 -0.984,-4.279 -0.615,-4.086C-0.247,-3.892 0.047,-3.65 0.267,-3.362L0.267,-4.274L1.578,-4.274L1.578,2.005L0.267,2.005L0.267,1.071C0.047,1.367 -0.253,1.614 -0.633,1.811C-1.013,2.009 -1.445,2.108 -1.932,2.108C-2.471,2.108 -2.965,1.969 -3.413,1.692C-3.862,1.414 -4.217,1.027 -4.479,0.529C-4.741,0.032 -4.871,-0.532 -4.871,-1.163C-4.871,-1.793 -4.741,-2.352 -4.479,-2.838" style="fill:rgb(75,75,186);fill-rule:nonzero;"/>
        </g>
        <g transform="matrix(1,0,0,1,0,-191.598)">
            <path d="M1703.69,640.334L1702.391,640.334L1702.391,634.055L1703.69,634.055L1703.69,640.334ZM1704.21,632.369L1701.69,633.611L1701.69,632.654L1704.21,631.264L1704.21,632.369Z" style="fill:rgb(75,75,186);fill-rule:nonzero;"/>
        </g>
        <g transform="matrix(1,0,0,1,1706.35,442.623)">
            <path d="M0,5.948C-0.391,5.769 -0.701,5.526 -0.928,5.219C-1.156,4.911 -1.278,4.567 -1.293,4.187L0.052,4.187C0.075,4.453 0.202,4.675 0.433,4.854C0.665,5.033 0.955,5.122 1.305,5.122C1.669,5.122 1.953,5.052 2.154,4.911C2.355,4.771 2.456,4.59 2.456,4.37C2.456,4.134 2.344,3.959 2.12,3.845C1.895,3.731 1.541,3.606 1.055,3.469C0.583,3.34 0.2,3.215 -0.097,3.094C-0.393,2.972 -0.649,2.786 -0.866,2.535C-1.083,2.284 -1.191,1.954 -1.191,1.544C-1.191,1.209 -1.092,0.904 -0.894,0.626C-0.697,0.349 -0.414,0.13 -0.045,-0.029C0.323,-0.189 0.746,-0.268 1.225,-0.268C1.939,-0.268 2.515,-0.088 2.952,0.273C3.388,0.634 3.622,1.126 3.652,1.749L2.353,1.749C2.33,1.468 2.217,1.244 2.012,1.077C1.806,0.909 1.529,0.826 1.18,0.826C0.837,0.826 0.575,0.89 0.393,1.02C0.211,1.149 0.12,1.32 0.12,1.532C0.12,1.699 0.18,1.84 0.302,1.954C0.424,2.068 0.572,2.157 0.746,2.222C0.921,2.286 1.18,2.368 1.522,2.467C1.977,2.588 2.352,2.712 2.644,2.837C2.936,2.962 3.189,3.146 3.401,3.39C3.615,3.633 3.724,3.956 3.732,4.358C3.732,4.716 3.633,5.034 3.436,5.315C3.238,5.596 2.959,5.817 2.598,5.976C2.237,6.136 1.814,6.216 1.327,6.216C0.834,6.216 0.392,6.126 0,5.948" style="fill:rgb(75,75,186);fill-rule:nonzero;"/>
        </g>
        <g transform="matrix(1,0,0,1,1415.55,397.205)">
            <path d="M0,21.26C-9.689,21.26 -17.543,13.406 -17.543,3.717C-17.543,-5.971 -9.689,-13.825 0,-13.825C9.688,-13.825 17.543,-5.971 17.543,3.717C17.543,13.406 9.688,21.26 0,21.26M38.707,4.143C38.707,-17.43 21.058,-34.881 -0.589,-34.559C-21.29,-34.252 -38.265,-17.385 -38.698,3.315C-38.916,13.744 -35.005,23.256 -28.491,30.337L-28.563,30.337L-27.825,31.036C-27.03,31.858 -26.199,32.644 -25.334,33.393L-2.973,54.562C-1.305,56.141 1.305,56.141 2.973,54.562L25.334,33.394C26.199,32.644 27.03,31.858 27.825,31.036L28.563,30.337L28.491,30.337C34.832,23.444 38.707,14.247 38.707,4.143" style="fill:white;fill-rule:nonzero;"/>
        </g>
        <g transform="matrix(1,0,0,1,1446.42,396.749)">
            <path d="M0,-35.407L-61.741,-35.407C-63.057,-35.407 -64.271,-34.695 -64.913,-33.547L-77.438,-11.15C-77.817,-10.472 -78.016,-9.709 -78.016,-8.933L-78.016,-5.058C-78.016,-2.265 -73.795,0 -68.587,0C-63.38,0 -59.158,-2.265 -59.158,-5.058C-59.158,-2.265 -54.937,0 -49.729,0C-44.521,0 -40.3,-2.265 -40.3,-5.058C-40.3,-2.265 -36.078,0 -30.87,0C-25.663,0 -21.441,-2.265 -21.441,-5.058C-21.441,-2.265 -17.22,0 -12.012,0C-6.805,0 -2.583,-2.265 -2.583,-5.058C-2.583,-2.265 1.639,0 6.846,0C12.054,0 16.275,-2.265 16.275,-5.058L16.275,-8.933C16.275,-9.709 16.076,-10.472 15.697,-11.15L3.172,-33.547C2.53,-34.695 1.316,-35.407 0,-35.407" style="fill:rgb(250,223,112);fill-rule:nonzero;"/>
        </g>
        <g transform="matrix(1,0,0,1,1381.5,394.888)">
            <path d="M0,-31.686L-12.525,-9.29C-12.904,-8.612 -13.103,-7.848 -13.103,-7.072L-13.103,-3.198C-13.103,-0.405 -8.882,1.86 -3.674,1.86C1.533,1.86 5.755,-0.405 5.755,-3.198L5.755,-8.094C5.755,-8.201 5.774,-8.308 5.812,-8.408L15.184,-33.546L3.172,-33.546C1.856,-33.546 0.642,-32.835 0,-31.686" style="fill:rgb(249,203,0);fill-rule:nonzero;"/>
        </g>
        <g transform="matrix(1,0,0,1,1387.26,396.748)">
            <path d="M0,-10.116L0,-5.058C0,-2.264 4.222,0 9.429,0C14.637,0 18.858,-2.264 18.858,-5.058L18.858,-10.116L0,-10.116Z" style="fill:rgb(250,223,112);fill-rule:nonzero;"/>
        </g>
        <g transform="matrix(1,0,0,1,1424.98,396.748)">
            <path d="M0,-10.116L0,-5.058C0,-2.264 4.222,0 9.429,0C14.637,0 18.858,-2.264 18.858,-5.058L18.858,-10.116L0,-10.116Z" style="fill:rgb(250,223,112);fill-rule:nonzero;"/>
        </g>
        <g transform="matrix(1,0,0,1,1422.62,396.749)">
            <path d="M0,-35.407L-14.144,-35.407L-16.501,-10.117L-16.501,-5.058C-16.501,-2.265 -12.28,0 -7.072,0C-1.864,0 2.357,-2.265 2.357,-5.058L2.357,-10.117L0,-35.407Z" style="fill:rgb(249,203,0);fill-rule:nonzero;"/>
        </g>
        <g transform="matrix(1,0,0,1,1446.42,396.749)">
            <path d="M0,-35.407L-12.012,-35.407L-2.583,-10.117L-2.583,-5.058C-2.583,-2.265 1.639,0 6.846,0C12.054,0 16.275,-2.265 16.275,-5.058L16.275,-8.933C16.275,-9.709 16.076,-10.472 15.697,-11.15L3.172,-33.547C2.53,-34.695 1.316,-35.407 0,-35.407" style="fill:rgb(249,203,0);fill-rule:nonzero;"/>
        </g>
        <g transform="matrix(1,0,0,1,1369.31,396.748)">
            <path d="M0,-10.116C-0.502,-10.116 -0.909,-9.709 -0.909,-9.207L-0.909,-5.058C-0.909,-2.264 3.313,0 8.521,0C13.728,0 17.95,-2.264 17.95,-5.058L17.95,-10.116L0,-10.116Z" style="fill:rgb(249,203,0);fill-rule:nonzero;"/>
        </g>
        <g transform="matrix(1,0,0,1,1406.12,396.748)">
            <path d="M0,-10.116L0,-5.058C0,-2.264 4.222,0 9.429,0C14.637,0 18.858,-2.264 18.858,-5.058L18.858,-10.116L0,-10.116Z" style="fill:rgb(249,203,0);fill-rule:nonzero;"/>
        </g>
        <g transform="matrix(1,0,0,1,1443.83,396.748)">
            <path d="M0,-10.116L0,-5.058C0,-2.264 4.222,0 9.429,0C14.637,0 18.858,-2.264 18.858,-5.058L18.858,-9.207C18.858,-9.709 18.452,-10.116 17.95,-10.116L0,-10.116Z" style="fill:rgb(249,203,0);fill-rule:nonzero;"/>
        </g>
    </g>
</svg>
