<svg enable-background="new 0 0 34 34" viewBox="0 0 34 34" xmlns="http://www.w3.org/2000/svg"><g fill="#fff"><path clip-rule="evenodd" d="m-212.1 196.9h1.4.2v-2.5c-.3 0-.5-.1-.8-.1-.5 0-1 0-1.5 0-.7 0-1.5.2-2.1.6-.7.5-1.1 1.2-1.2 2.1-.1.3-.1.7-.1 1.1v1.7.2h-2.4v2.8h2.4v6.9h2.9v-6.9h2.3c.1-.9.2-1.8.4-2.8-.2 0-.4 0-.5 0-.7 0-2.2 0-2.2 0s0-1.4 0-2c0-.8.5-1 1.2-1.1z" fill-rule="evenodd"/><path d="m-214 218.5c-9.1 0-16.5-7.4-16.5-16.5s7.4-16.5 16.5-16.5 16.5 7.4 16.5 16.5-7.4 16.5-16.5 16.5zm0-32.5c-8.8 0-16 7.2-16 16s7.2 16 16 16 16-7.2 16-16-7.2-16-16-16z"/><path d="m58.5 246.2c-.1-1.1-.5-2-1.3-2.8s-1.9-1.1-3-1.2c-1.9-.1-6.4-.2-8 .1-1.8.3-3 1.4-3.5 3.1-.4 1.4-.3 7.7-.1 9.1.3 1.9 1.4 3.1 3.3 3.5 1.3.3 7.6.3 9 .1 1.9-.3 3.1-1.4 3.6-3.2.3-1.4.1-7.4 0-8.7zm-1.5 8.1c-.2 1.4-1.2 2.3-2.6 2.4-1.3.1-7.1.2-8.4-.1-1.2-.3-1.8-1.1-2-2.3-.2-1.1-.2-6.7 0-8.2.2-1.4 1.2-2.3 2.6-2.4 1.4-.2 6.6-.2 8 0s2.3 1.2 2.4 2.6c.2 1.4.2 6.6 0 8zm-6.5-8.2c-2.3 0-4.2 1.9-4.2 4.2s1.9 4.2 4.2 4.2 4.2-1.9 4.2-4.2-1.9-4.2-4.2-4.2zm0 6.9c-1.5 0-2.7-1.2-2.7-2.7s1.2-2.7 2.7-2.7 2.7 1.2 2.7 2.7-1.2 2.7-2.7 2.7zm5.3-7c0 .5-.4 1-1 1-.5 0-1-.4-1-1 0-.5.4-1 1-1s1 .4 1 1z"/><path d="m-130.6 200.4h3.1v9.9h-3.1zm1.5-5c1 0 1.8.8 1.8 1.8s-.8 1.8-1.8 1.8-1.8-.8-1.8-1.8.8-1.8 1.8-1.8"/><path d="m-125.6 200.4h3v1.4c.4-.8 1.4-1.6 2.9-1.6 3.1 0 3.7 2.1 3.7 4.7v5.4h-3.1v-4.8c0-1.2 0-2.6-1.6-2.6s-1.9 1.3-1.9 2.5v4.9h-3.1v-9.9z"/><path clip-rule="evenodd" d="m-84.6 207.8c-.6-.2-1-.6-1.2-1.2-.5-1.5-.7-7.6.3-8.8.4-.4.8-.7 1.3-.7 2.8-.3 11.3-.3 12.3.1.6.2 1 .6 1.2 1.2.6 1.5.6 7.1-.1 8.5-.2.4-.5.7-.9.9-.9.4-11.5.4-12.9 0zm4.4-2.9c1.7-.9 3.3-1.7 5-2.6-1.7-.9-3.3-1.7-5-2.6z" fill-rule="evenodd"/><path clip-rule="evenodd" d="m13.6 211.1c-1.9-.1-3-1.4-3.3-2.5.5.1 1 .1 1.5 0h.1c-1-.2-1.8-.8-2.3-1.7-.4-.6-.5-1.2-.5-1.9.5.3 1 .4 1.6.4-.8-.5-1.3-1.3-1.5-2.2s-.1-1.8.4-2.6c1.9 2.3 4.4 3.6 7.4 3.8 0-.1 0-.3-.1-.4-.1-.8.1-1.6.5-2.4.6-.9 1.4-1.5 2.4-1.6 1.2-.2 2.3.1 3.1 1h.2c.7-.2 1.4-.4 2.1-.8-.3.8-.8 1.5-1.5 2 .7-.1 1.4-.3 2-.5-.1.2-.3.4-.4.5-.4.5-.8.9-1.3 1.2 0 0-.1.1-.1.1 0 .5 0 1.1-.1 1.6-.1 1.1-.5 2.2-.9 3.2-.5 1.1-1.1 2-1.9 2.8-1.4 1.4-3 2.3-4.9 2.8-.7.1-1.3.2-2 .2-2.1.1-4-.5-5.8-1.5 0 0 0 0-.1-.1 1.3.1 2.4 0 3.6-.5.7-.2 1.2-.5 1.8-.9z" fill-rule="evenodd"/><path d="m50.5 266.3c-9.1 0-16.5-7.4-16.5-16.5s7.4-16.5 16.5-16.5 16.5 7.4 16.5 16.5-7.4 16.5-16.5 16.5zm0-32.5c-8.8 0-16 7.2-16 16s7.2 16 16 16 16-7.2 16-16-7.2-16-16-16z"/><path d="m-123.4 218.9c-9.1 0-16.4-7.4-16.4-16.4 0-9.1 7.4-16.4 16.4-16.4 9.1 0 16.4 7.4 16.4 16.4s-7.4 16.4-16.4 16.4zm0-32.4c-8.8 0-15.9 7.1-15.9 15.9s7.1 15.9 15.9 15.9 15.9-7.1 15.9-15.9c0-8.7-7.2-15.9-15.9-15.9z"/><path d="m-78.2 218.5c-9.1 0-16.5-7.4-16.5-16.5s7.4-16.5 16.5-16.5 16.5 7.4 16.5 16.5c-.1 9.1-7.4 16.5-16.5 16.5zm0-32.5c-8.8 0-16 7.2-16 16s7.2 16 16 16 16-7.2 16-16-7.2-16-16-16z"/><path d="m17 223.1c-9.1 0-16.5-7.4-16.5-16.5s7.4-16.5 16.5-16.5 16.5 7.4 16.5 16.5-7.4 16.5-16.5 16.5zm0-32.5c-8.8 0-16 7.2-16 16s7.2 16 16 16 16-7.2 16-16-7.2-16-16-16z"/><path d="m-26.8 216.2c-9.1 0-16.5-7.4-16.5-16.5s7.4-16.5 16.5-16.5 16.5 7.4 16.5 16.5-7.4 16.5-16.5 16.5zm0-32.5c-8.8 0-16 7.2-16 16s7.2 16 16 16 16-7.2 16-16c.1-8.9-7.1-16-16-16z"/><g clip-rule="evenodd" fill-rule="evenodd"><path d="m4.1 29.9c.1-.6.3-1 .4-1.5.4-1.6.9-3.1 1.3-4.7.1-.2 0-.5-.1-.8-3.9-7.4.1-16.5 8.4-18.5 7.5-1.8 14.3 3.3 15.5 10.1 1.3 7.1-3.4 13.8-10.4 15-2.8.5-5.5.1-8-1.2-.2-.1-.5-.1-.8-.1-3.3 1-5.6 1.6-6.3 1.7zm3-2.9c1.3-.3 2.5-.6 3.6-1 .3-.1.6 0 .9.1 2.2 1.3 4.6 1.7 7.1 1.3 5.8-.9 9.8-6.4 8.9-12.2-.9-6-6.6-10.1-12.5-9-7.2 1.3-11 9.4-7.5 15.7.4.7.5 1.3.2 2-.2 1.1-.4 2.1-.7 3.1z"/><path d="m20.4 23.1c-2.5-.1-6.5-2.1-9.2-6.8-1-1.7-.8-3.6.6-4.9.5-.4 1.1-.3 1.6-.2.1 0 .3.2.4.4.4.8.7 1.7 1 2.5.2.4-.1.9-.8 1.6-.2.2-.2.5-.1.7 1.1 1.8 2.5 3.1 4.5 3.8.3.1.5 0 .7-.2 1-1.3 1.1-1.6 1.7-1.4 2.6 1.2 2.8 1.3 2.8 1.6 0 2.2-2 2.9-3.2 2.9z"/></g></g></svg>