<svg width="0" height="0" class="hidden">
  <symbol xmlns="http://www.w3.org/2000/svg" viewBox="0 0 512 512" id="facebook">
    <path
      d="m304 96h80v-96h-80c-61.757 0-112 50.243-112 112v48h-64v96h64v256h96v-256h80l16-96h-96v-48c0-8.673 7.327-16 16-16z">
    </path>
  </symbol>
  <symbol xmlns="http://www.w3.org/2000/svg" viewBox="0 0 512 512" id="instagram">
    <path
      d="m256 46.1c68.4 0 76.5.3 103.4 1.5 25 1.1 38.5 5.3 47.5 8.8 11.9 4.6 20.5 10.2 29.4 19.1 9 9 14.5 17.5 19.2 29.4 3.5 9 7.7 22.6 8.8 47.5 1.2 27 1.5 35.1 1.5 103.4s-.3 76.5-1.5 103.4c-1.1 25-5.3 38.5-8.8 47.5-4.6 11.9-10.2 20.5-19.1 29.4-9 9-17.5 14.5-29.4 19.2-9 3.5-22.6 7.7-47.5 8.8-27 1.2-35.1 1.5-103.4 1.5s-76.5-.3-103.4-1.5c-25-1.1-38.5-5.3-47.5-8.8-11.9-4.6-20.5-10.2-29.4-19.1-9-9-14.5-17.5-19.2-29.4-3.5-9-7.7-22.6-8.8-47.5-1.2-27-1.5-35.1-1.5-103.4s.3-76.5 1.5-103.4c1.1-25 5.3-38.5 8.8-47.5 4.6-11.9 10.2-20.5 19.1-29.4 9-9 17.5-14.5 29.4-19.2 9-3.5 22.6-7.7 47.5-8.8 26.9-1.2 35-1.5 103.4-1.5zm0-46.1c-69.5 0-78.2.3-105.5 1.5-27.2 1.2-45.9 5.6-62.1 11.9-16.9 6.6-31.2 15.3-45.4 29.6-14.3 14.2-23 28.5-29.6 45.3-6.3 16.3-10.7 34.9-11.9 62.1-1.2 27.4-1.5 36.1-1.5 105.6s.3 78.2 1.5 105.5c1.2 27.2 5.6 45.9 11.9 62.1 6.6 16.9 15.3 31.2 29.6 45.4 14.2 14.2 28.5 23 45.3 29.5 16.3 6.3 34.9 10.7 62.1 11.9 27.3 1.2 36 1.5 105.5 1.5s78.2-.3 105.5-1.5c27.2-1.2 45.9-5.6 62.1-11.9 16.8-6.5 31.1-15.3 45.3-29.5s23-28.5 29.5-45.3c6.3-16.3 10.7-34.9 11.9-62.1 1.2-27.3 1.5-36 1.5-105.5s-.3-78.2-1.5-105.5c-1.2-27.2-5.6-45.9-11.9-62.1-6.3-17-15-31.3-29.3-45.5-14.2-14.2-28.5-23-45.3-29.5-16.3-6.3-34.9-10.7-62.1-11.9-27.4-1.3-36.1-1.6-105.6-1.6z">
    </path>
    <path
      d="m256 124.5c-72.6 0-131.5 58.9-131.5 131.5s58.9 131.5 131.5 131.5 131.5-58.9 131.5-131.5-58.9-131.5-131.5-131.5zm0 216.8c-47.1 0-85.3-38.2-85.3-85.3s38.2-85.3 85.3-85.3 85.3 38.2 85.3 85.3-38.2 85.3-85.3 85.3z">
    </path>
    <path
      d="m423.4 119.3c0 16.955-13.745 30.7-30.7 30.7s-30.7-13.745-30.7-30.7 13.745-30.7 30.7-30.7 30.7 13.745 30.7 30.7z">
    </path>
  </symbol>
  <symbol version="1.1" xmlns="http://www.w3.org/2000/svg" xmlns:xlink="http://www.w3.org/1999/xlink"
    xml:space="preserve" xmlnsSerif="http://www.serif.com/" viewBox="0 0 24 24" id="linkedin">
    <g transform="matrix(0.0628272,0,0,0.0628272,0,0)">
      <path
        d="M347.445,0L34.555,0C15.471,0 0,15.471 0,34.555L0,347.444C0,366.529 15.471,382 34.555,382L347.444,382C366.529,382 382,366.529 382,347.444L382,34.555C382,15.471 366.529,0 347.445,0ZM118.207,329.844C118.207,335.398 113.705,339.9 108.151,339.9L65.345,339.9C59.791,339.9 55.289,335.398 55.289,329.844L55.289,150.403C55.289,144.849 59.791,140.347 65.345,140.347L108.151,140.347C113.705,140.347 118.207,144.849 118.207,150.403L118.207,329.844ZM86.748,123.432C64.289,123.432 46.082,105.225 46.082,82.766C46.082,60.307 64.289,42.1 86.748,42.1C109.207,42.1 127.414,60.307 127.414,82.766C127.414,105.225 109.208,123.432 86.748,123.432ZM341.91,330.654C341.91,335.76 337.77,339.9 332.664,339.9L286.73,339.9C281.624,339.9 277.484,335.76 277.484,330.654L277.484,246.486C277.484,233.93 281.167,191.465 244.671,191.465C216.362,191.465 210.62,220.531 209.467,233.575L209.467,330.654C209.467,335.76 205.328,339.9 200.221,339.9L155.795,339.9C150.689,339.9 146.549,335.76 146.549,330.654L146.549,149.593C146.549,144.487 150.689,140.347 155.795,140.347L200.221,140.347C205.327,140.347 209.467,144.487 209.467,149.593L209.467,165.248C219.964,149.495 235.564,137.336 268.779,137.336C342.331,137.336 341.91,206.052 341.91,243.808L341.91,330.654Z">
      </path>
    </g>
  </symbol>
  <symbol version="1.1" xmlns="http://www.w3.org/2000/svg" xmlns:xlink="http://www.w3.org/1999/xlink"
    xml:space="preserve" xmlnsSerif="http://www.serif.com/" viewBox="0 0 512 512" id="pinterest">
    <path
      d="M256,0c-141.389,0 -256,114.586 -256,255.942c0,108.47 67.52,201.015 162.741,238.287c-2.193,-20.193 -4.27,-51.35 0.924,-73.39c4.616,-19.963 30.009,-127.163 30.009,-127.163c-0,-0 -7.618,-15.347 -7.618,-37.964c-0,-35.542 20.66,-62.197 46.283,-62.197c21.814,-0 32.433,16.385 32.433,36.002c-0,21.925 -13.966,54.812 -21.237,85.16c-6.118,25.502 12.696,46.273 37.857,46.273c45.475,0 80.447,-48.003 80.447,-117.239c0,-61.274 -44.09,-104.085 -106.878,-104.085c-72.829,-0 -115.534,54.581 -115.534,111.124c-0,22.04 8.425,45.58 19.044,58.389c2.077,2.538 2.423,4.731 1.731,7.385c-1.962,8.077 -6.233,25.502 -7.156,29.079c-1.154,4.731 -3.693,5.654 -8.541,3.462c-31.971,-14.886 -51.939,-61.62 -51.939,-99.123c0,-80.775 58.633,-154.858 169.09,-154.858c88.757,0 157.778,63.236 157.778,147.819c-0,88.16 -55.632,159.243 -132.848,159.243c-25.969,-0 -50.323,-13.501 -58.633,-29.426c0,0 -12.811,48.812 -15.928,60.813c-5.771,22.27 -21.352,50.08 -31.855,67.043c24.007,7.385 49.399,11.424 75.83,11.424c141.389,0 256,-114.586 256,-255.942c0,-141.472 -114.611,-256.058 -256,-256.058Z">
    </path>
  </symbol>
  <symbol version="1.1" xmlns="http://www.w3.org/2000/svg" xmlns:xlink="http://www.w3.org/1999/xlink"
    xml:space="preserve" xmlnsSerif="http://www.serif.com/" viewBox="0 0 24 24" id="snapchat">
    <path
      d="M18.272,10.027c1.008,-5.048 -0.958,-9.275 -6.272,-9.311c-3.803,-0.029 -7.273,2.456 -6.323,8.958c0.122,0.814 -0.274,0.713 -0.878,0.576c-0.512,-0.108 -1.023,-0.223 -1.527,-0.331c-0.252,0.043 -0.439,0.137 -0.569,0.274c-0.734,0.777 0.742,1.375 1.296,1.584c0.735,0.273 1.527,0.533 1.426,1.39c-0.036,0.338 -0.151,0.669 -0.288,1.008c-0.691,1.678 -2.528,3.233 -4.277,3.73c-0.908,0.259 -1.369,0.36 0.014,1.116c0.619,0.339 1.404,0.533 2.412,0.677c0.144,2.679 1.152,0.958 3.342,1.397c0.273,0.058 0.568,0.094 0.885,0.23c0.562,0.245 1.131,0.728 1.779,1.102c1.959,1.131 3.723,1.203 5.631,-0.144c1.102,-0.778 2.161,-1.548 4.119,-1.303c1.376,0.173 1.289,0.597 1.757,-1.34c1.729,-0.302 3.284,-0.641 3.198,-1.591c-2.262,-0.483 -3.702,-1.664 -4.897,-3.593c-0.475,-0.764 -1.073,-1.88 0.18,-2.413c0.324,-0.137 0.77,-0.216 1.274,-0.396c0.447,-0.158 0.85,-0.432 0.944,-0.641c0.252,-0.561 -0.166,-1.066 -0.699,-1.102c-1.015,-0.072 -1.49,0.591 -2.11,0.389c-0.136,-0.043 -0.273,-0.129 -0.432,-0.266l0.015,-0Z">
    </path>
  </symbol>
  <symbol version="1.1" xmlns="http://www.w3.org/2000/svg" xmlns:xlink="http://www.w3.org/1999/xlink"
    xml:space="preserve" xmlnsSerif="http://www.serif.com/" viewBox="0 0 24 24" id="telegram">
    <path id="telegram-1"
      d="M18.384,21.779c0.322,0.228 0.737,0.285 1.107,0.145c0.37,-0.141 0.642,-0.457 0.724,-0.84c0.869,-4.084 2.977,-14.421 3.768,-18.136c0.06,-0.28 -0.04,-0.571 -0.26,-0.758c-0.22,-0.187 -0.525,-0.241 -0.797,-0.14c-4.193,1.552 -17.106,6.397 -22.384,8.35c-0.335,0.124 -0.553,0.446 -0.542,0.799c0.012,0.354 0.25,0.661 0.593,0.764c2.367,0.708 5.474,1.693 5.474,1.693c0,0 1.452,4.385 2.209,6.615c0.095,0.28 0.314,0.5 0.603,0.576c0.288,0.075 0.596,-0.004 0.811,-0.207c1.216,-1.148 3.096,-2.923 3.096,-2.923c0,0 3.572,2.619 5.598,4.062Zm-11.01,-8.677l1.679,5.538l0.373,-3.507c0,0 6.487,-5.851 10.185,-9.186c0.108,-0.098 0.123,-0.262 0.033,-0.377c-0.089,-0.115 -0.253,-0.142 -0.376,-0.064c-4.286,2.737 -11.894,7.596 -11.894,7.596Z">
    </path>
  </symbol>
  <symbol version="1.1" xmlns="http://www.w3.org/2000/svg" xmlns:xlink="http://www.w3.org/1999/xlink"
    xml:space="preserve" xmlnsSerif="http://www.serif.com/" viewBox="0 0 24 24" id="tiktok">
    <path
      d="M16.689,-0c0.396,3.406 2.297,5.436 5.602,5.652l-0,3.831c-1.916,0.187 -3.593,-0.439 -5.545,-1.62l0,7.164c0,9.101 -9.922,11.945 -13.91,5.422c-2.564,-4.198 -0.994,-11.564 7.229,-11.859l-0,4.039c-0.627,0.101 -1.296,0.259 -1.908,0.468c-1.829,0.619 -2.866,1.779 -2.578,3.824c0.554,3.916 7.74,5.076 7.142,-2.578l0,-14.336l3.968,0l-0,-0.007Z">
    </path>
  </symbol>
  <symbol version="1.1" xmlns="http://www.w3.org/2000/svg" xmlns:xlink="http://www.w3.org/1999/xlink"
    xml:space="preserve" xmlnsSerif="http://www.serif.com/" viewBox="0 0 24 24" id="twitch">
    <path
      d="M3.978,2.164l-0,15.325l5.107,-0l0,2.904c0.079,-0.075 0.123,-0.115 0.166,-0.157c0.861,-0.86 1.725,-1.717 2.581,-2.581c0.122,-0.123 0.244,-0.173 0.417,-0.173c1.785,0.006 3.57,0.007 5.355,-0.003c0.131,-0.001 0.294,-0.069 0.387,-0.161c1.113,-1.097 2.213,-2.207 3.323,-3.308c0.125,-0.123 0.17,-0.246 0.17,-0.418c-0.005,-3.72 -0.004,-7.441 -0.004,-11.162l0,-0.266l-17.502,0l-0,0Zm13.817,10.9l-2.119,0l-0,-6.486l2.119,0l0,6.486Zm-5.806,-6.485l-0,6.477l-2.158,-0l-0,-6.477l2.158,-0Zm-5.797,17.402l0,-2.87l-5.812,-0c-0.006,-0.12 -0.015,-0.213 -0.015,-0.307l-0,-4.302l-0,-3.291c0,-2.868 0.001,-5.736 0.003,-8.605c-0,-0.156 0.028,-0.319 0.076,-0.467c0.429,-1.304 0.868,-2.604 1.294,-3.908c0.056,-0.169 0.125,-0.229 0.305,-0.231l0.009,-0c7.114,0.006 14.227,0.005 21.341,0.005c0.069,-0 0.139,-0 0.238,-0l0,0.301c0,4.654 -0.001,9.307 0.004,13.961l0,0.009c-0.001,0.189 -0.059,0.321 -0.194,0.455c-2.064,2.056 -4.123,4.115 -6.179,6.179c-0.136,0.137 -0.27,0.194 -0.464,0.193c-1.252,-0.009 -2.505,0.001 -3.757,-0.01c-0.24,-0.002 -0.411,0.061 -0.582,0.235c-0.826,0.845 -1.664,1.677 -2.504,2.507c-0.08,0.079 -0.206,0.157 -0.311,0.158c-0.525,0.005 -1.049,0.007 -1.573,0.007l-0.315,-0c-0.49,-0 -0.979,-0.001 -1.469,-0.002c-0.025,0 -0.049,-0.009 -0.095,-0.017l0,-0Z">
    </path>
  </symbol>
  <symbol xmlns="http://www.w3.org/2000/svg" viewBox="0 0 512 512" id="twitter">
    <path
      d="m512 113.2c-18.8 8.4-39.1 14-60.3 16.5 21.7-13 38.3-33.6 46.2-58.1-20.3 12-42.8 20.8-66.7 25.5-19.2-20.4-46.5-33.1-76.7-33.1-58 0-105 47-105 105 0 8.2.9 16.2 2.7 23.9-87.3-4.4-164.7-46.2-216.5-109.8-9 15.5-14.2 33.6-14.2 52.8 0 36.4 18.5 68.6 46.7 87.4-17.2-.5-33.4-5.3-47.6-13.1v1.3c0 50.9 36.2 93.4 84.3 103-8.8 2.4-18.1 3.7-27.7 3.7-6.8 0-13.3-.7-19.8-1.9 13.4 41.7 52.2 72.1 98.1 73-36 28.2-81.2 45-130.5 45-8.5 0-16.8-.5-25.1-1.5 46.6 29.9 101.8 47.2 161.1 47.2 193.2 0 298.9-160.1 298.9-298.9 0-4.6-.1-9.1-.3-13.6 20.5-14.7 38.3-33.2 52.4-54.3z">
    </path>
  </symbol>
  <symbol xmlns="http://www.w3.org/2000/svg" viewBox="0 0 512 512" id="whatsapp">
    <path
      d="m436.5 74.4c-47.9-48-111.6-74.4-179.5-74.4-139.8 0-253.6 113.8-253.6 253.7 0 44.7 11.7 88.4 33.9 126.8l-36 131.5 134.5-35.3c37.1 20.2 78.8 30.9 121.2 30.9h.1c139.8 0 253.7-113.8 253.7-253.7 0-67.8-26.4-131.5-74.3-179.5zm-179.4 390.4c-37.9 0-75-10.2-107.4-29.4l-7.7-4.6-79.8 20.9 21.3-77.8-5-8c-21.2-33.5-32.3-72.3-32.3-112.2 0-116.3 94.6-210.9 211-210.9 56.3 0 109.3 22 149.1 61.8 39.8 39.9 61.7 92.8 61.7 149.2-.1 116.4-94.7 211-210.9 211zm115.6-158c-6.3-3.2-37.5-18.5-43.3-20.6s-10-3.2-14.3 3.2c-4.2 6.3-16.4 20.6-20.1 24.9-3.7 4.2-7.4 4.8-13.7 1.6s-26.8-9.9-51-31.5c-18.8-16.8-31.6-37.6-35.3-43.9s-.4-9.8 2.8-12.9c2.9-2.8 6.3-7.4 9.5-11.1s4.2-6.3 6.3-10.6c2.1-4.2 1.1-7.9-.5-11.1s-14.3-34.4-19.5-47.1c-5.1-12.4-10.4-10.7-14.3-10.9-3.7-.2-7.9-.2-12.1-.2s-11.1 1.6-16.9 7.9-22.2 21.7-22.2 52.9 22.7 61.3 25.9 65.6c3.2 4.2 44.7 68.3 108.3 95.7 15.1 6.5 26.9 10.4 36.1 13.4 15.2 4.8 29 4.1 39.9 2.5 12.2-1.8 37.5-15.3 42.8-30.1s5.3-27.5 3.7-30.1c-1.5-2.8-5.7-4.4-12.1-7.6z">
    </path>
  </symbol>
  <symbol version="1.1" xmlns="http://www.w3.org/2000/svg" xmlns:xlink="http://www.w3.org/1999/xlink"
    xml:space="preserve" xmlnsSerif="http://www.serif.com/" aria-hidden="true" viewBox="0 0 24 24" id="x-twitter">

    <g transform="matrix(0.0799734,0,0,0.0799734,0.0879704,0)">
      <path
        d="M236,0L282,0L181,115L299,271L206.4,271L133.9,176.2L50.9,271L4.9,271L111.9,148L-1.1,0L93.8,0L159.3,86.6L236,0ZM219.9,244L245.4,244L80.4,26L53,26L219.9,244Z"
        style="fill-rule:nonzero;"></path>
    </g>

  </symbol>
  <symbol version="1.1" xmlns="http://www.w3.org/2000/svg" xmlns:xlink="http://www.w3.org/1999/xlink"
    xml:space="preserve" xmlnsSerif="http://www.serif.com/" viewBox="0 0 24 24" id="youtube">
    <g transform="matrix(0.0520605,0,0,0.0520605,0,-2.60303e-05)">
      <path
        d="M365.257,67.393L95.744,67.393C42.866,67.393 0,110.259 0,163.137L0,297.865C0,350.743 42.866,393.609 95.744,393.609L365.257,393.609C418.135,393.609 461.001,350.743 461.001,297.865L461.001,163.137C461.001,110.259 418.135,67.393 365.257,67.393ZM300.506,237.056L174.446,297.179C171.087,298.781 167.207,296.332 167.207,292.611L167.207,168.607C167.207,164.833 171.189,162.387 174.555,164.093L300.615,227.974C304.363,229.873 304.298,235.248 300.506,237.056Z">
      </path>
    </g>
  </symbol>
</svg>